<svg id="_x31__x2C_5" enable-background="new 0 0 24 24" height="512" viewBox="0 0 24 24" width="512" xmlns="http://www.w3.org/2000/svg"><g><path d="m12.25 19h-9.5c-1.517 0-2.75-1.233-2.75-2.75v-13.5c0-1.517 1.233-2.75 2.75-2.75h15.5c1.517 0 2.75 1.233 2.75 2.75v6.5c0 .414-.336.75-.75.75s-.75-.336-.75-.75v-6.5c0-.689-.561-1.25-1.25-1.25h-15.5c-.689 0-1.25.561-1.25 1.25v13.5c0 .689.561 1.25 1.25 1.25h9.5c.414 0 .75.336.75.75s-.336.75-.75.75z"/></g><g><path d="m20.25 5h-19.5c-.414 0-.75-.336-.75-.75s.336-.75.75-.75h19.5c.414 0 .75.336.75.75s-.336.75-.75.75z"/></g><g><path d="m15.25 24c-.414 0-.75-.336-.75-.75v-1.75c0-3.722 3.028-6.75 6.75-6.75h1.25c.414 0 .75.336.75.75s-.336.75-.75.75h-1.25c-2.895 0-5.25 2.355-5.25 5.25v1.75c0 .414-.336.75-.75.75z"/></g><g><path d="m20.25 19c-.203 0-.405-.082-.553-.243-.28-.306-.26-.78.046-1.06l2.397-2.197-2.396-2.197c-.306-.279-.326-.754-.046-1.06s.756-.324 1.06-.046l3 2.75c.154.142.242.343.242.553s-.088.411-.243.553l-3 2.75c-.144.132-.325.197-.507.197z"/></g></svg>